<?xml version="1.0" encoding="utf-8"?>
<!-- Generator: Adobe Illustrator 25.2.3, SVG Export Plug-In . SVG Version: 6.00 Build 0)  -->
<svg version="1.1" id="Layer_1" xmlns="http://www.w3.org/2000/svg" xmlns:xlink="http://www.w3.org/1999/xlink" x="0px" y="0px"
	 viewBox="0 0 202 93" style="enable-background:new 0 0 202 93;" xml:space="preserve">
<style type="text/css">
	.st0{fill:#133235;}
	.st1{fill:#50C878;}
	.st2{fill:url(#SVGID_1_);}
	.st3{fill:#92DDAB;}
</style>
<path class="st0" d="M23.9,63.5H0v5.5h8.8v22.7h6.2V68.9h8.8V63.5z"/>
<path class="st0" d="M47,92.1c-2.1,0-4.1-0.4-5.9-1.1c-1.8-0.7-3.4-1.8-4.7-3.1c-1.4-1.3-2.4-2.9-3.1-4.6c-0.7-1.8-1.1-3.7-1.1-5.7
	c0-2.1,0.4-4,1.1-5.7c0.7-1.8,1.8-3.3,3.1-4.6c1.3-1.3,2.9-2.3,4.7-3.1c1.8-0.7,3.7-1.1,5.9-1.1c2.1,0,4.1,0.4,5.8,1.1
	c1.8,0.7,3.4,1.8,4.7,3.1c1.3,1.3,2.4,2.9,3.1,4.6c0.7,1.8,1.1,3.7,1.1,5.8c0,2-0.4,4-1.1,5.7c-0.7,1.8-1.8,3.3-3.1,4.6
	c-1.3,1.3-2.9,2.3-4.7,3.1C51,91.7,49.1,92.1,47,92.1z M47,86.4c1.7,0,3.1-0.4,4.4-1.1c1.3-0.7,2.2-1.8,2.9-3.1c0.7-1.3,1-2.9,1-4.6
	c0-1.3-0.2-2.5-0.6-3.6c-0.4-1.1-1-2-1.7-2.8c-0.7-0.8-1.6-1.4-2.6-1.8c-1-0.4-2.2-0.6-3.4-0.6c-1.7,0-3.1,0.4-4.4,1.1
	s-2.2,1.8-2.9,3.1c-0.7,1.3-1,2.9-1,4.6c0,1.3,0.2,2.5,0.6,3.6c0.4,1.1,1,2,1.7,2.8c0.7,0.8,1.6,1.4,2.6,1.8
	C44.6,86.1,45.7,86.4,47,86.4z"/>
<path class="st0" d="M96.7,63.5l-9.9,15.5l-9.9-15.5h-4.5v28.1h6.2V76l6.1,9.6h4.1L95,76v15.6h6.2V63.5H96.7z"/>
<path class="st0" d="M202,63.5h-22.5v3.4h9.4v24.7h3.7V66.9h9.4V63.5z"/>
<path class="st0" d="M23.9,63.5H0v5.5h8.8v22.7h6.2V68.9h8.8V63.5z"/>
<path class="st0" d="M47,92.1c-2.1,0-4.1-0.4-5.9-1.1c-1.8-0.7-3.4-1.8-4.7-3.1c-1.4-1.3-2.4-2.9-3.1-4.6c-0.7-1.8-1.1-3.7-1.1-5.7
	c0-2.1,0.4-4,1.1-5.7c0.7-1.8,1.8-3.3,3.1-4.6c1.3-1.3,2.9-2.3,4.7-3.1c1.8-0.7,3.7-1.1,5.9-1.1c2.1,0,4.1,0.4,5.8,1.1
	c1.8,0.7,3.4,1.8,4.7,3.1c1.3,1.3,2.4,2.9,3.1,4.6c0.7,1.8,1.1,3.7,1.1,5.8c0,2-0.4,4-1.1,5.7c-0.7,1.8-1.8,3.3-3.1,4.6
	c-1.3,1.3-2.9,2.3-4.7,3.1C51,91.7,49.1,92.1,47,92.1z M47,86.4c1.7,0,3.1-0.4,4.4-1.1c1.3-0.7,2.2-1.8,2.9-3.1c0.7-1.3,1-2.9,1-4.6
	c0-1.3-0.2-2.5-0.6-3.6c-0.4-1.1-1-2-1.7-2.8c-0.7-0.8-1.6-1.4-2.6-1.8c-1-0.4-2.2-0.6-3.4-0.6c-1.7,0-3.1,0.4-4.4,1.1
	s-2.2,1.8-2.9,3.1c-0.7,1.3-1,2.9-1,4.6c0,1.3,0.2,2.5,0.6,3.6c0.4,1.1,1,2,1.7,2.8c0.7,0.8,1.6,1.4,2.6,1.8
	C44.6,86.1,45.7,86.4,47,86.4z"/>
<path class="st0" d="M96.7,63.5l-9.9,15.5l-9.9-15.5h-4.5v28.1h6.2V76l6.1,9.6h4.1L95,76v15.6h6.2V63.5H96.7z"/>
<path class="st0" d="M136.9,66.9v-3.4h-21.9v28.1h3.7V79.4h11.6V76h-11.6v-9.1H136.9z"/>
<path class="st0" d="M169.3,63.5h-21.5v3.4h21.5V63.5z"/>
<path class="st0" d="M169.3,88.1h-21.5v3.4h21.5V88.1z"/>
<path class="st0" d="M160.4,70.2h-3.7v14.7h3.7V70.2z"/>
<path class="st1" d="M120,34.5c2.9,0,5.3-2.4,5.3-5.3c0-2.9-2.4-5.3-5.3-5.3s-5.3,2.4-5.3,5.3C114.7,32.1,117.1,34.5,120,34.5z"/>
<linearGradient id="SVGID_1_" gradientUnits="userSpaceOnUse" x1="122.8987" y1="98.9357" x2="101.6827" y2="46.5869" gradientTransform="matrix(1 0 0 -1 0 94)">
	<stop  offset="0" style="stop-color:#50C878"/>
	<stop  offset="1" style="stop-color:#5AD282"/>
</linearGradient>
<path class="st2" d="M134.8,4.1c-0.5-2-2.2-3.5-4.1-3.9C130,0,129.3,0,128.6,0c-0.1,0-0.3,0-0.4,0c-1.5,0-3.1,0.2-4.5,0.5
	c-4.1,0.7-8.1,2-11.7,4c-3.4,1.8-6.4,4.1-9.1,6.7c-1.5,1.5-2.9,3.2-4.2,4.9c-1.5,2.1-2.7,4.3-3.8,6.7c-1,2.4-1.8,4.8-2.3,7.3
	c-0.5,2.5-0.8,5.1-0.8,7.7c0,2.8,2.1,5.2,4.9,5.5c0.2,0,0.4,0,0.6,0c3,0,5.4-2.4,5.4-5.4c0-3.2,0.5-6.4,1.7-9.3
	c0.3-0.9,0.7-1.8,1.2-2.7c0.6-1.2,1.3-2.4,2.1-3.5c0.8-1.1,1.7-2.1,2.7-3.1c1-1,2.1-2,3.2-2.9c2.1-1.7,4.5-3,7.1-3.9
	c2-0.8,4.2-1.3,6.3-1.5c0.8-0.1,1.6-0.1,2.4-0.1c1,0,2-0.1,2.9-0.6c0.8-0.4,1.5-0.9,2-1.6c0.2-0.2,0.3-0.5,0.4-0.7
	c0.4-0.8,0.7-1.8,0.6-2.7C135,4.9,135,4.5,134.8,4.1z"/>
<path class="st3" d="M109.4,0.9C109.4,0.9,109.4,0.9,109.4,0.9L82,0.9c-3,0-5.4,2.4-5.4,5.3c0,2.9,2.4,5.3,5.4,5.3h14.1c0,0,0,0,0,0
	c0.9-1.1,1.9-2.2,2.9-3.2C103.8,3.7,108.7,1.3,109.4,0.9z"/>
</svg>
